<svg width="21" height="20" viewBox="0 0 21 20" fill="none" xmlns="http://www.w3.org/2000/svg">
<path d="M14.6666 4.55554V11.7775C14.6666 11.9249 14.6081 12.0662 14.5039 12.1704C14.3997 12.2745 14.2584 12.3331 14.1111 12.3331C13.9637 12.3331 13.8224 12.2745 13.7183 12.1704C13.6141 12.0662 13.5555 11.9249 13.5555 11.7775V5.89647L5.61552 13.8372C5.51128 13.9414 5.36989 14 5.22247 14C5.07505 14 4.93367 13.9414 4.82943 13.8372C4.72519 13.733 4.66663 13.5916 4.66663 13.4442C4.66663 13.2967 4.72519 13.1554 4.82943 13.0511L12.7702 5.11108H6.88909C6.74175 5.11108 6.60045 5.05255 6.49626 4.94836C6.39208 4.84418 6.33355 4.70288 6.33355 4.55554C6.33355 4.4082 6.39208 4.2669 6.49626 4.16271C6.60045 4.05853 6.74175 4 6.88909 4H14.1111C14.2584 4 14.3997 4.05853 14.5039 4.16271C14.6081 4.2669 14.6666 4.4082 14.6666 4.55554Z" fill="white"/>
</svg>
