<svg width="21" height="20" viewBox="0 0 21 20" fill="none" xmlns="http://www.w3.org/2000/svg">
  <path d="M14.6665 4.55554V11.7775C14.6665 11.9249 14.608 12.0662 14.5038 12.1704C14.3996 12.2745 14.2583 12.3331 14.111 12.3331C13.9636 12.3331 13.8223 12.2745 13.7181 12.1704C13.614 12.0662 13.5554 11.9249 13.5554 11.7775V5.89647L5.61539 13.8372C5.51115 13.9414 5.36977 14 5.22235 14C5.07493 14 4.93355 13.9414 4.82931 13.8372C4.72507 13.733 4.6665 13.5916 4.6665 13.4442C4.6665 13.2967 4.72507 13.1553 4.82931 13.0511L12.77 5.11108H6.88897C6.74163 5.11108 6.60032 5.05255 6.49614 4.94836C6.39196 4.84418 6.33343 4.70288 6.33343 4.55554C6.33343 4.4082 6.39196 4.2669 6.49614 4.16271C6.60032 4.05853 6.74163 4 6.88897 4H14.111C14.2583 4 14.3996 4.05853 14.5038 4.16271C14.608 4.2669 14.6665 4.4082 14.6665 4.55554Z" fill="#BBBBBB"/>
</svg>
