<svg width="16" height="20" viewBox="0 0 16 20" fill="none" xmlns="http://www.w3.org/2000/svg">
<path d="M16 1.27219V15.8176C16 16.0105 15.9234 16.1955 15.787 16.3319C15.6506 16.4683 15.4656 16.5449 15.2727 16.5449H2.90909C2.52332 16.5449 2.15335 16.6982 1.88057 16.9709C1.60779 17.2437 1.45455 17.6137 1.45455 17.9995H13.8182C14.0111 17.9995 14.1961 18.0761 14.3324 18.2125C14.4688 18.3489 14.5455 18.5339 14.5455 18.7267C14.5455 18.9196 14.4688 19.1046 14.3324 19.241C14.1961 19.3774 14.0111 19.454 13.8182 19.454H0.727273C0.534388 19.454 0.349404 19.3774 0.213013 19.241C0.0766233 19.1046 0 18.9196 0 18.7267V3.45401C0 2.68247 0.306493 1.94254 0.852053 1.39697C1.39761 0.851414 2.13755 0.544922 2.90909 0.544922H15.2727C15.4656 0.544922 15.6506 0.621545 15.787 0.757935C15.9234 0.894325 16 1.07931 16 1.27219Z" fill="white"/>
</svg>
