<svg width="24" height="24" viewBox="0 0 24 24" fill="none" xmlns="http://www.w3.org/2000/svg">
<path d="M8.25098 12C8.25098 12.41 8.59088 12.75 9.00077 12.75H13.9994C14.4093 12.75 14.7492 12.41 14.7492 12C14.7492 11.59 14.4093 11.25 13.9994 11.25H9.00077C8.59088 11.25 8.25098 11.59 8.25098 12Z" fill="#333333"/>
<path d="M9.25082 15.5H7.00144C4.83204 15.5 3.11254 13.51 3.58241 11.27C3.91232 9.63 5.43185 8.5 7.10139 8.5H9.25082C9.6607 8.5 10.0006 8.16 10.0006 7.75C10.0006 7.34 9.6607 7 9.25082 7H7.2114C4.60213 7 2.27277 8.91 2.02284 11.51C1.74292 14.49 4.07225 17 7.00144 17H9.25082C9.6607 17 10.0006 16.66 10.0006 16.25C10.0006 15.84 9.6607 15.5 9.25082 15.5Z" fill="#333333"/>
<path d="M21.9773 11.51C21.7273 8.91 19.398 7 16.7887 7H14.7493C14.3394 7 13.9995 7.34 13.9995 7.75C13.9995 8.16 14.3394 8.5 14.7493 8.5H16.8987C18.5683 8.5 20.0878 9.63 20.4177 11.27C20.8776 13.52 19.1681 15.5 16.9987 15.5H14.7493C14.3394 15.5 13.9995 15.84 13.9995 16.25C13.9995 16.66 14.3394 17 14.7493 17H16.9987C19.9179 17 22.2572 14.49 21.9773 11.51Z" fill="#333333"/>
</svg>
