<svg width="17" height="17" viewBox="0 0 17 17" fill="none" xmlns="http://www.w3.org/2000/svg">
<path d="M11.9931 10.0836C11.8635 10.8078 11.5151 11.4749 10.9948 11.9951C10.4745 12.5153 9.80734 12.8635 9.08313 12.993C9.05563 12.9974 9.02784 12.9997 9 12.9999C8.87458 12.9999 8.75375 12.9527 8.66148 12.8678C8.56921 12.7828 8.51223 12.6663 8.50185 12.5413C8.49146 12.4163 8.52843 12.292 8.60542 12.193C8.68242 12.094 8.7938 12.0275 8.9175 12.0068C9.95312 11.8324 10.8319 10.9536 11.0075 9.91615C11.0297 9.78536 11.103 9.66876 11.2112 9.59199C11.3193 9.51521 11.4536 9.48456 11.5844 9.50677C11.7152 9.52899 11.8318 9.60224 11.9085 9.71043C11.9853 9.81861 12.016 9.95286 11.9937 10.0836H11.9931ZM14 9.4999C14 10.9586 13.4205 12.3575 12.3891 13.389C11.3576 14.4204 9.95869 14.9999 8.5 14.9999C7.04131 14.9999 5.64236 14.4204 4.61091 13.389C3.57946 12.3575 3 10.9586 3 9.4999C3 7.7549 3.6875 5.97052 5.04125 4.19677C5.0841 4.14061 5.13837 4.09416 5.20047 4.06049C5.26258 4.02683 5.33112 4.0067 5.40157 4.00145C5.47201 3.99619 5.54278 4.00592 5.60919 4.03C5.67561 4.05408 5.73616 4.09196 5.78687 4.14115L7.29437 5.60427L8.66938 1.82865C8.69685 1.75334 8.74202 1.68575 8.80108 1.63156C8.86015 1.57737 8.93138 1.53818 9.00877 1.51728C9.08615 1.49639 9.16743 1.49441 9.24574 1.51151C9.32406 1.5286 9.39711 1.56428 9.45875 1.61552C10.8256 2.7499 14 5.78427 14 9.4999ZM13 9.4999C13 6.61927 10.7631 4.1299 9.36187 2.85427L7.97 6.67115C7.94143 6.74954 7.8937 6.81954 7.83116 6.87477C7.76861 6.92999 7.69324 6.96869 7.61191 6.98733C7.53059 7.00596 7.44589 7.00395 7.36553 6.98148C7.28518 6.959 7.21173 6.91678 7.15188 6.85865L5.50375 5.2599C4.50562 6.70052 4 8.1249 4 9.4999C4 10.6934 4.47411 11.838 5.31802 12.6819C6.16193 13.5258 7.30653 13.9999 8.5 13.9999C9.69347 13.9999 10.8381 13.5258 11.682 12.6819C12.5259 11.838 13 10.6934 13 9.4999Z" fill="#4561FF"/>
</svg>
