<svg width="16" height="17" viewBox="0 0 16 17" fill="none" xmlns="http://www.w3.org/2000/svg">
<path d="M12.5 11C12.0566 11.0004 11.6259 11.1479 11.2753 11.4193C10.9246 11.6908 10.674 12.0708 10.5625 12.5H4.5C3.96957 12.5 3.46086 12.2893 3.08579 11.9142C2.71071 11.5391 2.5 11.0304 2.5 10.5C2.5 9.96957 2.71071 9.46086 3.08579 9.08579C3.46086 8.71071 3.96957 8.5 4.5 8.5H10.5C11.163 8.5 11.7989 8.23661 12.2678 7.76777C12.7366 7.29893 13 6.66304 13 6C13 5.33696 12.7366 4.70107 12.2678 4.23223C11.7989 3.76339 11.163 3.5 10.5 3.5H4.5C4.36739 3.5 4.24021 3.55268 4.14645 3.64645C4.05268 3.74021 4 3.86739 4 4C4 4.13261 4.05268 4.25979 4.14645 4.35355C4.24021 4.44732 4.36739 4.5 4.5 4.5H10.5C10.8978 4.5 11.2794 4.65804 11.5607 4.93934C11.842 5.22064 12 5.60218 12 6C12 6.39782 11.842 6.77936 11.5607 7.06066C11.2794 7.34196 10.8978 7.5 10.5 7.5H4.5C3.70435 7.5 2.94129 7.81607 2.37868 8.37868C1.81607 8.94129 1.5 9.70435 1.5 10.5C1.5 11.2956 1.81607 12.0587 2.37868 12.6213C2.94129 13.1839 3.70435 13.5 4.5 13.5H10.5625C10.656 13.8621 10.8492 14.1908 11.1201 14.4487C11.391 14.7066 11.7288 14.8833 12.0952 14.9588C12.4615 15.0343 12.8416 15.0056 13.1925 14.8759C13.5433 14.7462 13.8507 14.5208 14.0798 14.2251C14.3089 13.9295 14.4506 13.5756 14.4886 13.2035C14.5267 12.8314 14.4596 12.4561 14.2951 12.1202C14.1305 11.7843 13.8751 11.5013 13.5578 11.3033C13.2405 11.1053 12.874 11.0002 12.5 11ZM12.5 14C12.3022 14 12.1089 13.9414 11.9444 13.8315C11.78 13.7216 11.6518 13.5654 11.5761 13.3827C11.5004 13.2 11.4806 12.9989 11.5192 12.8049C11.5578 12.6109 11.653 12.4327 11.7929 12.2929C11.9327 12.153 12.1109 12.0578 12.3049 12.0192C12.4989 11.9806 12.7 12.0004 12.8827 12.0761C13.0654 12.1518 13.2216 12.28 13.3315 12.4444C13.4414 12.6089 13.5 12.8022 13.5 13C13.5 13.2652 13.3946 13.5196 13.2071 13.7071C13.0196 13.8946 12.7652 14 12.5 14Z" fill="#4561FF"/>
</svg>
