<svg width="17" height="17" viewBox="0 0 17 17" fill="none" xmlns="http://www.w3.org/2000/svg">
<path d="M15.5003 8.49979V12.4998C15.5003 12.6324 15.4476 12.7596 15.3538 12.8533C15.2601 12.9471 15.1329 12.9998 15.0003 12.9998H11.0003C10.8677 12.9998 10.7405 12.9471 10.6467 12.8533C10.553 12.7596 10.5003 12.6324 10.5003 12.4998C10.5003 12.3672 10.553 12.24 10.6467 12.1462C10.7405 12.0525 10.8677 11.9998 11.0003 11.9998H13.7934L9.00028 7.20666L6.85403 9.35354C6.80759 9.40003 6.75245 9.43691 6.69175 9.46207C6.63105 9.48723 6.56599 9.50018 6.50028 9.50018C6.43457 9.50018 6.36951 9.48723 6.30881 9.46207C6.24811 9.43691 6.19296 9.40003 6.14653 9.35354L1.64653 4.85354C1.55271 4.75972 1.5 4.63247 1.5 4.49979C1.5 4.36711 1.55271 4.23986 1.64653 4.14604C1.74035 4.05222 1.8676 3.99951 2.00028 3.99951C2.13296 3.99951 2.26021 4.05222 2.35403 4.14604L6.50028 8.29291L8.64653 6.14604C8.69296 6.09955 8.74811 6.06267 8.80881 6.03751C8.86951 6.01235 8.93457 5.9994 9.00028 5.9994C9.06599 5.9994 9.13105 6.01235 9.19175 6.03751C9.25245 6.06267 9.30759 6.09955 9.35403 6.14604L14.5003 11.2929V8.49979C14.5003 8.36718 14.553 8.24 14.6467 8.14624C14.7405 8.05247 14.8677 7.99979 15.0003 7.99979C15.1329 7.99979 15.2601 8.05247 15.3538 8.14624C15.4476 8.24 15.5003 8.36718 15.5003 8.49979Z" fill="#4561FF"/>
</svg>
