<svg width="16" height="17" viewBox="0 0 16 17" fill="none" xmlns="http://www.w3.org/2000/svg">
<path d="M9.49957 6C9.89513 6 10.2818 5.8827 10.6107 5.66294C10.9396 5.44318 11.196 5.13082 11.3473 4.76537C11.4987 4.39992 11.5383 3.99778 11.4611 3.60982C11.384 3.22186 11.1935 2.86549 10.9138 2.58579C10.6341 2.30608 10.2777 2.1156 9.88975 2.03843C9.50178 1.96126 9.09965 2.00087 8.7342 2.15224C8.36875 2.30362 8.05639 2.55996 7.83663 2.88886C7.61686 3.21776 7.49957 3.60444 7.49957 4C7.49957 4.53043 7.71028 5.03914 8.08535 5.41421C8.46043 5.78929 8.96913 6 9.49957 6ZM9.49957 3C9.69735 3 9.89069 3.05865 10.0551 3.16853C10.2196 3.27841 10.3478 3.43459 10.4234 3.61732C10.4991 3.80004 10.5189 4.00111 10.4804 4.19509C10.4418 4.38907 10.3465 4.56726 10.2067 4.70711C10.0668 4.84696 9.88864 4.9422 9.69466 4.98079C9.50068 5.01937 9.29961 4.99957 9.11688 4.92388C8.93416 4.84819 8.77798 4.72002 8.6681 4.55557C8.55821 4.39112 8.49957 4.19778 8.49957 4C8.49957 3.73478 8.60492 3.48043 8.79246 3.29289C8.98 3.10536 9.23435 3 9.49957 3ZM13.7064 9.2925C13.6683 9.31 13.2383 9.4975 12.4771 9.4975C11.6114 9.4975 10.3177 9.255 8.68394 8.2475C8.43528 8.95341 8.11243 9.63096 7.72082 10.2688C8.42422 10.4853 9.08586 10.8194 9.67769 11.2569C10.8696 12.1656 11.4996 13.4594 11.4996 15C11.4996 15.1326 11.4469 15.2598 11.3531 15.3536C11.2594 15.4473 11.1322 15.5 10.9996 15.5C10.867 15.5 10.7398 15.4473 10.646 15.3536C10.5522 15.2598 10.4996 15.1326 10.4996 15C10.4996 12.3938 8.33144 11.4556 7.11582 11.1344C7.08144 11.1781 7.04582 11.2225 7.01019 11.2656C5.78269 12.7531 4.24457 13.5269 2.53332 13.5269C2.3384 13.5278 2.14357 13.5188 1.94957 13.5C1.81696 13.4867 1.69505 13.4213 1.61066 13.3182C1.52627 13.2151 1.4863 13.0826 1.49957 12.95C1.51283 12.8174 1.57822 12.6955 1.68137 12.6111C1.78451 12.5267 1.91696 12.4867 2.04957 12.5C3.66957 12.6613 5.07894 12.0319 6.23707 10.625C7.01769 9.67875 7.54957 8.52438 7.81519 7.6875C5.38269 6.27188 3.82894 7.47688 3.81207 7.49C3.76113 7.53349 3.70198 7.56631 3.63812 7.5865C3.57426 7.60669 3.507 7.61385 3.44032 7.60754C3.37364 7.60124 3.30891 7.5816 3.24997 7.5498C3.19102 7.518 3.13907 7.47468 3.09719 7.42242C3.05531 7.37015 3.02436 7.31 3.00617 7.24554C2.98798 7.18109 2.98293 7.11363 2.99131 7.04718C2.9997 6.98073 3.02134 6.91665 3.05497 6.85873C3.0886 6.8008 3.13352 6.75023 3.18707 6.71C3.28082 6.635 5.51332 4.8975 8.78144 7.12063C11.6233 9.0525 13.2771 8.39 13.2927 8.3825C13.3526 8.35421 13.4175 8.33811 13.4837 8.33513C13.5499 8.33214 13.616 8.34234 13.6782 8.36513C13.7404 8.38792 13.7975 8.42284 13.846 8.46786C13.8946 8.51289 13.9338 8.56712 13.9613 8.62741C13.9887 8.6877 14.0039 8.75285 14.006 8.81906C14.008 8.88527 13.9969 8.95124 13.9733 9.01312C13.9496 9.075 13.9139 9.13156 13.8682 9.17952C13.8225 9.22749 13.7677 9.26589 13.7071 9.2925H13.7064Z" fill="#4561FF"/>
</svg>
