<svg width="28" height="28" viewBox="0 0 28 28" fill="none" xmlns="http://www.w3.org/2000/svg">
<path d="M23.3333 4.66659H16.3333V3.49992C16.3333 2.85825 15.8083 2.33325 15.1667 2.33325H12.8333C12.1917 2.33325 11.6667 2.85825 11.6667 3.49992V4.66659H4.66667C4.025 4.66659 3.5 5.19159 3.5 5.83325V9.33325C3.5 9.97492 4.025 10.4999 4.66667 10.4999V24.4999C4.66667 25.1416 5.19167 25.6666 5.83333 25.6666H22.1667C22.8083 25.6666 23.3333 25.1416 23.3333 24.4999V10.4999C23.975 10.4999 24.5 9.97492 24.5 9.33325V5.83325C24.5 5.19159 23.975 4.66659 23.3333 4.66659ZM13.4167 4.08325H14.5833V4.66659H13.4167V4.08325ZM5.25 6.41659H22.75V8.74992H5.25V6.41659ZM21.5833 23.9166H6.41667V10.4999H21.5833V23.9166Z" fill="#333333"/>
<path d="M10.5 20.1249C10.9783 20.1249 11.375 19.7283 11.375 19.2499V14.5833C11.375 14.1049 10.9783 13.7083 10.5 13.7083C10.0217 13.7083 9.625 14.1049 9.625 14.5833V19.2499C9.625 19.7283 10.0217 20.1249 10.5 20.1249Z" fill="#333333"/>
<path d="M14 20.1249C14.4783 20.1249 14.875 19.7283 14.875 19.2499V14.5833C14.875 14.1049 14.4783 13.7083 14 13.7083C13.5217 13.7083 13.125 14.1049 13.125 14.5833V19.2499C13.125 19.7283 13.5217 20.1249 14 20.1249Z" fill="#333333"/>
<path d="M17.5 20.1249C17.9783 20.1249 18.375 19.7283 18.375 19.2499V14.5833C18.375 14.1049 17.9783 13.7083 17.5 13.7083C17.0217 13.7083 16.625 14.1049 16.625 14.5833V19.2499C16.625 19.7283 17.0217 20.1249 17.5 20.1249Z" fill="#333333"/>
</svg>
