<svg width="21" height="20" viewBox="0 0 21 20" fill="none" xmlns="http://www.w3.org/2000/svg">
<g clip-path="url(#clip0_1018_738)">
<path fill-rule="evenodd" clip-rule="evenodd" d="M19.7 10.218C19.7 9.53846 19.639 8.88505 19.5258 8.25781H10.5V11.9648H15.6576C15.4354 13.1627 14.7603 14.1777 13.7453 14.8572V17.2618H16.8424C18.6546 15.5934 19.7 13.1366 19.7 10.218Z" fill="#4285F4"/>
<path fill-rule="evenodd" clip-rule="evenodd" d="M10.5001 19.5828C13.0876 19.5828 15.2568 18.7246 16.8425 17.2611L13.7453 14.8565C12.8872 15.4315 11.7894 15.7712 10.5001 15.7712C8.00403 15.7712 5.89134 14.0855 5.13774 11.8203H1.93604V14.3033C3.51294 17.4353 6.75384 19.5828 10.5001 19.5828Z" fill="#34A853"/>
<path fill-rule="evenodd" clip-rule="evenodd" d="M5.13753 11.8209C4.94586 11.2459 4.83696 10.6317 4.83696 10.0001C4.83696 9.36845 4.94586 8.75428 5.13753 8.17925V5.69629H1.93582C1.28677 6.99004 0.916504 8.4537 0.916504 10.0001C0.916504 11.5464 1.28677 13.0101 1.93582 14.3039L5.13753 11.8209Z" fill="#FBBC05"/>
<path fill-rule="evenodd" clip-rule="evenodd" d="M10.5001 4.22854C11.9071 4.22854 13.1703 4.71207 14.1635 5.66169L16.9122 2.91302C15.2525 1.36662 13.0832 0.416992 10.5001 0.416992C6.75384 0.416992 3.51294 2.56453 1.93604 5.69653L5.13774 8.17949C5.89134 5.91434 8.00403 4.22854 10.5001 4.22854Z" fill="#EA4335"/>
</g>
<defs>
<clipPath id="clip0_1018_738">
<rect width="20" height="20" fill="white" transform="translate(0.5)"/>
</clipPath>
</defs>
</svg>
