<svg width="28" height="28" viewBox="0 0 28 28" fill="none" xmlns="http://www.w3.org/2000/svg">
<path d="M11.1183 8.83721L13.125 6.83721V16.3605C13.125 16.8372 13.5217 17.2326 14 17.2326C14.4783 17.2326 14.875 16.8372 14.875 16.3605V6.83721L16.8817 8.83721C17.0567 9.01163 17.2783 9.09302 17.5 9.09302C17.7217 9.09302 17.9433 9.01163 18.1183 8.83721C18.4567 8.5 18.4567 7.94186 18.1183 7.60465L14 3.5L9.88168 7.60465C9.54335 7.94186 9.54335 8.5 9.88168 8.83721C10.22 9.17442 10.78 9.17442 11.1183 8.83721Z" fill="#333333"/>
<path d="M23.625 17.5232C23.1467 17.5232 22.75 17.9185 22.75 18.3953V22.7558H5.25V18.3953C5.25 17.9185 4.85333 17.5232 4.375 17.5232C3.89667 17.5232 3.5 17.9185 3.5 18.3953V23.3371C3.5 23.9767 4.025 24.4999 4.66667 24.4999H23.3333C23.975 24.4999 24.5 23.9767 24.5 23.3371V18.3953C24.5 17.9185 24.1033 17.5232 23.625 17.5232Z" fill="#333333"/>
</svg>
