<svg width="25" height="24" viewBox="0 0 25 24" fill="none" xmlns="http://www.w3.org/2000/svg">
<path d="M16.7946 4.5C17.8749 4.5 18.8951 4.92 19.6553 5.7C21.2457 7.3 21.2457 9.91 19.6553 11.51L12.3435 18.88L5.03167 11.51C3.44127 9.91 3.44127 7.3 5.03167 5.7C5.80186 4.93 6.81212 4.5 7.89239 4.5C8.97266 4.5 9.99291 4.92 10.7531 5.7L11.2732 6.22L12.3435 7.29L13.4138 6.22L13.9339 5.7C14.7041 4.93 15.7143 4.5 16.7946 4.5ZM16.7946 3C15.3743 3 13.9539 3.55 12.8636 4.64L12.3435 5.16L11.8234 4.64C10.7431 3.55 9.31274 3 7.89239 3C6.47203 3 5.05168 3.55 3.9614 4.64C1.79086 6.83 1.79086 10.37 3.9614 12.56L12.3335 21L20.7056 12.56C22.8761 10.37 22.8761 6.83 20.7056 4.64C19.6253 3.55 18.195 3 16.7746 3H16.7946Z" fill="#333333"/>
</svg>
