<svg width="24" height="24" viewBox="0 0 24 24" fill="none" xmlns="http://www.w3.org/2000/svg">
<path d="M12 2C6.48 2 2 6.48 2 12C2 17.52 6.48 22 12 22C17.52 22 22 17.52 22 12C22 6.48 17.52 2 12 2ZM12 20.5C7.31 20.5 3.5 16.69 3.5 12C3.5 7.31 7.31 3.5 12 3.5C16.69 3.5 20.5 7.31 20.5 12C20.5 16.69 16.69 20.5 12 20.5Z" fill="#4561FF"/>
<path d="M12 10.25C11.59 10.25 11.25 10.59 11.25 11V16C11.25 16.41 11.59 16.75 12 16.75C12.41 16.75 12.75 16.41 12.75 16V11C12.75 10.59 12.41 10.25 12 10.25Z" fill="#4561FF"/>
<path d="M11.47 7.46977C11.33 7.60977 11.25 7.79977 11.25 7.99977C11.25 8.19977 11.33 8.38977 11.47 8.52977C11.61 8.66977 11.8 8.74977 12 8.74977C12.2 8.74977 12.39 8.66977 12.53 8.52977C12.67 8.38977 12.75 8.19977 12.75 7.99977C12.75 7.79977 12.67 7.60977 12.53 7.46977C12.25 7.18977 11.75 7.18977 11.47 7.46977Z" fill="#4561FF"/>
</svg>
