<svg width="21" height="20" viewBox="0 0 21 20" fill="none" xmlns="http://www.w3.org/2000/svg">
<path d="M10.4938 2C5.70624 2 1.84521 5.08878 1.84521 8.83861C1.84521 11.2726 3.4514 13.4039 5.86068 14.6209L5.04523 17.6665C5.02985 17.7121 5.0275 17.7612 5.03841 17.808C5.04932 17.8549 5.07306 17.898 5.10701 17.9321C5.1565 17.9757 5.22018 17.9998 5.28616 18C5.34087 17.9957 5.39278 17.974 5.43442 17.9383L8.94332 15.5723C9.46128 15.6437 9.9834 15.6808 10.5063 15.6834C15.2878 15.6834 19.1549 12.5947 19.1549 8.83861C19.1549 5.08261 15.2753 2 10.4938 2Z" fill="#392020"/>
</svg>
