<svg width="20" height="20" viewBox="0 0 20 20" fill="none" xmlns="http://www.w3.org/2000/svg">
<path d="M10 0.25C8.07164 0.25 6.18657 0.821828 4.58319 1.89317C2.97982 2.96452 1.73013 4.48726 0.992179 6.26884C0.254225 8.05042 0.061142 10.0108 0.437348 11.9021C0.813554 13.7934 1.74215 15.5307 3.10571 16.8943C4.46928 18.2579 6.20656 19.1865 8.09787 19.5627C9.98919 19.9389 11.9496 19.7458 13.7312 19.0078C15.5127 18.2699 17.0355 17.0202 18.1068 15.4168C19.1782 13.8134 19.75 11.9284 19.75 10C19.7473 7.41498 18.7192 4.93661 16.8913 3.10872C15.0634 1.28084 12.585 0.25273 10 0.25ZM10.75 18.2153V15.25C10.75 15.0511 10.671 14.8603 10.5303 14.7197C10.3897 14.579 10.1989 14.5 10 14.5C9.80109 14.5 9.61033 14.579 9.46967 14.7197C9.32902 14.8603 9.25 15.0511 9.25 15.25V18.2153C7.3301 18.0376 5.53283 17.1939 4.16945 15.8306C2.80606 14.4672 1.96244 12.6699 1.78469 10.75H4.75C4.94892 10.75 5.13968 10.671 5.28033 10.5303C5.42099 10.3897 5.5 10.1989 5.5 10C5.5 9.80109 5.42099 9.61032 5.28033 9.46967C5.13968 9.32902 4.94892 9.25 4.75 9.25H1.78469C1.96244 7.3301 2.80606 5.53282 4.16945 4.16944C5.53283 2.80606 7.3301 1.96244 9.25 1.78469V4.75C9.25 4.94891 9.32902 5.13968 9.46967 5.28033C9.61033 5.42098 9.80109 5.5 10 5.5C10.1989 5.5 10.3897 5.42098 10.5303 5.28033C10.671 5.13968 10.75 4.94891 10.75 4.75V1.78469C12.6699 1.96244 14.4672 2.80606 15.8306 4.16944C17.1939 5.53282 18.0376 7.3301 18.2153 9.25H15.25C15.0511 9.25 14.8603 9.32902 14.7197 9.46967C14.579 9.61032 14.5 9.80109 14.5 10C14.5 10.1989 14.579 10.3897 14.7197 10.5303C14.8603 10.671 15.0511 10.75 15.25 10.75H18.2153C18.0376 12.6699 17.1939 14.4672 15.8306 15.8306C14.4672 17.1939 12.6699 18.0376 10.75 18.2153Z" fill="#0057FF"/>
</svg>
