<svg width="125" height="24" viewBox="0 0 125 24" fill="none" xmlns="http://www.w3.org/2000/svg">
<g clip-path="url(#clip0_1180_2320)">
<path d="M41.411 13.9042H33.5206V18.9933H42.4726V21.3289H30.9658V11.5618H38.8562V6.33575H31.1849V4.00013H41.411V13.8974V13.9042ZM42.4041 11.2536H45.1164V3.43164H47.6507V22.5412H45.1164V13.5686H42.4041V11.2536Z" fill="#4561FF"/>
<path d="M52.8765 3.84945V11.5207H61.8011V13.8152H50.3148V3.84945H52.8696H52.8765ZM50.8217 19.1919C50.8217 16.6988 52.5203 15.1782 59.0203 15.1782C65.5203 15.1782 67.2189 16.6988 67.2189 19.1919C67.2189 21.6851 65.5203 23.2467 59.0203 23.2467C52.5203 23.2467 50.8217 21.7056 50.8217 19.1919ZM64.6641 19.2125C64.6641 17.9796 63.4313 17.4727 59.0203 17.4727C54.6093 17.4727 53.3765 17.9796 53.3765 19.2125C53.3765 20.5549 54.6984 20.9522 59.0203 20.9522C63.3422 20.9522 64.6641 20.5549 64.6641 19.2125ZM66.8285 3.43164V14.4316H64.2943V3.43164H66.8285Z" fill="#4561FF"/>
<path d="M80.4726 9.33572H69.0137V7.1097H80.4726V9.33572ZM69.363 13.6576C69.363 11.4727 71.1027 10.3083 74.7602 10.3083C78.4178 10.3083 80.1575 11.4796 80.1575 13.6576C80.1575 15.8357 78.4178 17.007 74.7602 17.007C71.1027 17.007 69.363 15.8357 69.363 13.6576ZM70.5137 2.94531C71.2602 3.34257 72.5 3.67134 74.3904 3.67134H79.637V5.89737H73.7739C72.2328 5.89737 70.5548 5.6097 69.6301 5.15079L70.5137 2.94531ZM85.589 20.4248V22.6302H69.8698V17.7124H72.4041V20.4248H85.5822H85.589ZM77.6986 13.6576C77.6986 12.9111 77.0342 12.4659 74.7671 12.4659C72.5 12.4659 71.8356 12.9042 71.8356 13.6576C71.8356 14.4111 72.5 14.8494 74.7671 14.8494C77.0342 14.8494 77.6986 14.4111 77.6986 13.6576ZM87.3493 8.69874V11.0138H85.2329V17.9796H82.7192V3.43161H85.2329V8.69874H87.3493Z" fill="#4561FF"/>
<path d="M99.5686 18.7947V21.1097H88.6371V4.00698H99.3495V6.32205H91.1919V18.8015H99.5686V18.7947ZM106.534 11.1234V13.4385H104.418V22.5412H101.884V3.43164H104.418V11.1234H106.534Z" fill="#4561FF"/>
<path d="M107.391 12.7125C107.391 5.74671 109.219 3.58917 113.144 3.58917C117.069 3.58917 118.897 5.74671 118.897 12.7125C118.897 19.6782 117.069 21.8357 113.144 21.8357C109.219 21.8357 107.391 19.6782 107.391 12.7125ZM116.363 12.7125C116.363 7.04808 115.192 5.90424 113.144 5.90424C111.096 5.90424 109.925 7.04808 109.925 12.7125C109.925 18.3768 111.096 19.5207 113.144 19.5207C115.192 19.5207 116.363 18.3768 116.363 12.7125ZM124.37 3.43164V22.5412H121.836V3.43164H124.37Z" fill="#4561FF"/>
<path d="M4.12329 10.5068C8.77397 7.58904 10.5685 4.22603 13.6781 4.22603C15.4384 4.22603 16.5548 5.11644 17.226 6.27397C15.6027 6.17123 14.6781 7.23973 14.4247 7.65068C13.4658 9.17808 14.0411 11.3082 15.8288 12.0616C16.7877 12.4658 19.1575 13.0068 20.7945 13.0959C21.3014 12.0479 21.7055 10.8014 21.7055 9.23973C21.6781 3.10274 18.2055 0 9.42466 0H1.67123C0.746575 0 0 0.746575 0 1.67123V12.589C1.76712 12.0068 3.14384 11.1301 4.12329 10.5137V10.5068Z" fill="#4561FF"/>
<path d="M19.1915 15.4648H0.0682373V22.4374C0.0682373 23.3005 0.766868 23.9991 1.62988 23.9991H8.32851C9.19152 23.9991 9.89015 23.3005 9.89015 22.4374V18.1635H9.91755L11.5477 22.91C11.7669 23.5402 12.3559 23.9648 13.0271 23.9648H20.1984C21.2943 23.9648 22.0477 22.8621 21.6573 21.8416L19.1915 15.4648Z" fill="#4561FF"/>
</g>
<defs>
<clipPath id="clip0_1180_2320">
<rect width="124.37" height="24" fill="white"/>
</clipPath>
</defs>
</svg>
