<svg width="24" height="24" viewBox="0 0 24 24" fill="none" xmlns="http://www.w3.org/2000/svg">
<path d="M3.76999 5.54193H20.23C20.66 5.54193 21 5.19149 21 4.77096C21 4.35044 20.65 4 20.23 4H3.76999C3.33999 4 3 4.35044 3 4.77096C3 5.19149 3.34999 5.54193 3.76999 5.54193Z" fill="#333333"/>
<path d="M20.23 11.2295H3.76999C3.33999 11.2295 3 11.5799 3 12.0005C3 12.421 3.34999 12.7714 3.76999 12.7714H20.23C20.66 12.7714 21 12.421 21 12.0005C21 11.5799 20.65 11.2295 20.23 11.2295Z" fill="#333333"/>
<path d="M20.23 18.458H3.76999C3.33999 18.458 3 18.8084 3 19.229C3 19.6495 3.34999 19.9999 3.76999 19.9999H20.23C20.66 19.9999 21 19.6495 21 19.229C21 18.8084 20.65 18.458 20.23 18.458Z" fill="#333333"/>
</svg>
