<svg width="61" height="60" viewBox="0 0 61 60" fill="none" xmlns="http://www.w3.org/2000/svg">
<rect x="0.5" width="60" height="60" rx="30" fill="url(#paint0_linear_1046_10924)"/>
<path d="M39.5 20H21.5C20.95 20 20.5 20.45 20.5 21V34C20.5 34.55 20.95 35 21.5 35H23.5V40L30.72 35H39.5C40.05 35 40.5 34.55 40.5 34V21C40.5 20.45 40.05 20 39.5 20Z" fill="white"/>
<path d="M26.5 26.75H34.5C34.91 26.75 35.25 26.41 35.25 26C35.25 25.59 34.91 25.25 34.5 25.25H26.5C26.09 25.25 25.75 25.59 25.75 26C25.75 26.41 26.09 26.75 26.5 26.75Z" fill="#777777"/>
<path d="M26.5 29.75H34.5C34.91 29.75 35.25 29.41 35.25 29C35.25 28.59 34.91 28.25 34.5 28.25H26.5C26.09 28.25 25.75 28.59 25.75 29C25.75 29.41 26.09 29.75 26.5 29.75Z" fill="#777777"/>
<defs>
<linearGradient id="paint0_linear_1046_10924" x1="0.25" y1="-1.25729e-07" x2="60.25" y2="60" gradientUnits="userSpaceOnUse">
<stop stop-color="#DDDDDD"/>
<stop offset="1" stop-color="#D2D2D2"/>
</linearGradient>
</defs>
</svg>
