<svg width="16" height="17" viewBox="0 0 16 17" fill="none" xmlns="http://www.w3.org/2000/svg">
<g clip-path="url(#clip0_1827_6116)">
<path d="M15.958 2.45002C15.958 2.45002 15.958 2.45717 15.958 2.46074L11.8006 16.1734C11.7377 16.3961 11.6082 16.5943 11.4294 16.7413C11.2507 16.8882 11.0312 16.977 10.8006 16.9957C10.7677 16.9986 10.7349 17 10.702 17C10.4858 17.0007 10.274 16.9395 10.0915 16.8236C9.90897 16.7078 9.76339 16.5422 9.67194 16.3463L7.07179 11.0095C7.04577 10.9561 7.03709 10.8958 7.04695 10.8371C7.0568 10.7785 7.08472 10.7244 7.12679 10.6823L11.2642 6.54439C11.3668 6.43633 11.4232 6.29245 11.4213 6.14341C11.4194 5.99438 11.3593 5.85198 11.254 5.74659C11.1486 5.6412 11.0062 5.58115 10.8572 5.57924C10.7082 5.57733 10.5643 5.63372 10.4563 5.73638L6.31674 9.87432C6.27472 9.9164 6.22061 9.94432 6.16196 9.95418C6.10332 9.96404 6.04306 9.95536 5.98958 9.92933L0.648551 7.32954C0.439696 7.22933 0.266217 7.06801 0.151105 6.86696C0.035993 6.66591 -0.0153187 6.43463 0.00396985 6.20375C0.0232584 5.97288 0.112237 5.75331 0.259113 5.57416C0.40599 5.39501 0.603831 5.26472 0.826419 5.20056L14.5372 1.04261H14.5479C14.7432 0.987754 14.9494 0.985831 15.1456 1.03703C15.3419 1.08824 15.5209 1.19073 15.6644 1.33398C15.808 1.47724 15.9108 1.6561 15.9624 1.85223C16.014 2.04835 16.0125 2.25467 15.958 2.45002Z" fill="white"/>
</g>
<defs>
<clipPath id="clip0_1827_6116">
<rect width="16" height="16" fill="white" transform="translate(0 0.5)"/>
</clipPath>
</defs>
</svg>
