<svg width="16" height="16" viewBox="0 0 16 16" fill="none" xmlns="http://www.w3.org/2000/svg">
<path d="M14.1 4.75917L11.24 1.89962C11.1449 1.80451 11.032 1.72906 10.9077 1.67758C10.7835 1.6261 10.6503 1.59961 10.5158 1.59961C10.3813 1.59961 10.2482 1.6261 10.1239 1.67758C9.99968 1.72906 9.88678 1.80451 9.7917 1.89962L1.90016 9.79155C1.80466 9.8863 1.72895 9.99908 1.67742 10.1233C1.62589 10.2476 1.59958 10.3809 1.60001 10.5154V13.3756C1.60001 13.6472 1.70789 13.9076 1.89992 14.0997C2.09195 14.2917 2.3524 14.3996 2.62397 14.3996H13.3756C13.5113 14.3996 13.6416 14.3457 13.7376 14.2496C13.8336 14.1536 13.8875 14.0234 13.8875 13.8876C13.8875 13.7518 13.8336 13.6216 13.7376 13.5256C13.6416 13.4295 13.5113 13.3756 13.3756 13.3756H6.93229L14.1 6.20751C14.1951 6.11242 14.2706 5.99952 14.322 5.87527C14.3735 5.75101 14.4 5.61784 14.4 5.48334C14.4 5.34885 14.3735 5.21567 14.322 5.09141C14.2706 4.96716 14.1951 4.85426 14.1 4.75917ZM5.48402 13.3756H2.62397V10.5154L8.25576 4.88333L11.1158 7.74353L5.48402 13.3756ZM11.8396 7.01968L8.98021 4.15949L10.5162 2.62347L13.3756 5.48366L11.8396 7.01968Z" fill="#4561FF"/>
</svg>
