<svg width="24" height="24" viewBox="0 0 24 24" fill="none" xmlns="http://www.w3.org/2000/svg">
<g clip-path="url(#clip0_1937_12860)">
<path d="M23.5547 9.68998L19.3093 5.44533C19.1682 5.30414 19.0006 5.19215 18.8162 5.11574C18.6317 5.03933 18.4341 5 18.2344 5C18.0348 5 17.8371 5.03933 17.6527 5.11574C17.4683 5.19215 17.3007 5.30414 17.1595 5.44533L5.44554 17.1599C5.30379 17.3006 5.1914 17.468 5.11491 17.6524C5.03843 17.8369 4.99937 18.0347 5.00001 18.2344V22.48C5.00001 22.8831 5.16014 23.2697 5.44519 23.5548C5.73023 23.8399 6.11684 24 6.51995 24H22.4793C22.6809 24 22.8742 23.9199 23.0167 23.7774C23.1592 23.6349 23.2393 23.4416 23.2393 23.24C23.2393 23.0384 23.1592 22.8451 23.0167 22.7026C22.8742 22.5601 22.6809 22.48 22.4793 22.48H12.9151L23.5547 11.8399C23.6959 11.6987 23.8079 11.5311 23.8843 11.3467C23.9607 11.1622 24 10.9646 24 10.7649C24 10.5653 23.9607 10.3676 23.8843 10.1831C23.8079 9.99871 23.6959 9.83113 23.5547 9.68998ZM10.7653 22.48H6.51995V18.2344L14.8796 9.87428L19.125 14.1199L10.7653 22.48ZM20.1994 13.0454L15.955 8.79982L18.2349 6.51979L22.4793 10.7654L20.1994 13.0454Z" fill="#4561FF"/>
<circle cx="5" cy="5" r="5" fill="#4561FF"/>
<path d="M5 7V3M3 5H7" stroke="white" stroke-width="1.2" stroke-linecap="round"/>
</g>
<defs>
<clipPath id="clip0_1937_12860">
<rect width="24" height="24" fill="white"/>
</clipPath>
</defs>
</svg>
