<svg width="20" height="20" viewBox="0 0 20 20" fill="none" xmlns="http://www.w3.org/2000/svg">
<path d="M17.625 5.94945L14.0499 2.37501C13.9311 2.25612 13.79 2.16181 13.6347 2.09746C13.4794 2.03312 13.3129 2 13.1448 2C12.9767 2 12.8102 2.03312 12.6549 2.09746C12.4996 2.16181 12.3585 2.25612 12.2396 2.37501L2.37519 12.2399C2.25582 12.3584 2.16118 12.4993 2.09677 12.6547C2.03236 12.81 1.99947 12.9766 2.00001 13.1447V16.72C2.00001 17.0595 2.13486 17.385 2.3749 17.6251C2.61493 17.8651 2.94049 18 3.27996 18H16.7194C16.8892 18 17.052 17.9326 17.172 17.8125C17.292 17.6925 17.3594 17.5297 17.3594 17.36C17.3594 17.1903 17.292 17.0275 17.172 16.9074C17.052 16.7874 16.8892 16.72 16.7194 16.72H8.66535L17.625 7.75988C17.7439 7.64101 17.8382 7.49989 17.9025 7.34457C17.9669 7.18926 18 7.02278 18 6.85466C18 6.68655 17.9669 6.52007 17.9025 6.36476C17.8382 6.20944 17.7439 6.06832 17.625 5.94945ZM6.85502 16.72H3.27996V13.1447L10.3197 6.10466L13.8948 9.6799L6.85502 16.72ZM14.7995 8.77509L11.2253 5.19985L13.1452 3.27982L16.7194 6.85507L14.7995 8.77509Z" fill="#4561FF"/>
</svg>
