<svg width="16" height="16" viewBox="0 0 16 16" fill="none" xmlns="http://www.w3.org/2000/svg">
<path d="M13.78 12.72L10.16 9.1C10.68 8.36 11 7.47 11 6.5C11 4.01 8.99 2 6.5 2C4.01 2 2 4.01 2 6.5C2 8.99 4.01 11 6.5 11C7.47 11 8.37 10.68 9.1 10.16L12.72 13.78C12.87 13.93 13.06 14 13.25 14C13.44 14 13.63 13.93 13.78 13.78C14.07 13.49 14.07 13.01 13.78 12.72ZM6.5 9.5C4.85 9.5 3.5 8.15 3.5 6.5C3.5 4.85 4.85 3.5 6.5 3.5C8.15 3.5 9.5 4.85 9.5 6.5C9.5 7.05 9.34 7.57 9.07 8.01C8.81 8.45 8.45 8.81 8.01 9.07C7.56 9.33 7.05 9.5 6.5 9.5Z" fill="#777777"/>
</svg>
