<svg width="22" height="20" viewBox="0 0 22 20" fill="none" xmlns="http://www.w3.org/2000/svg">
<path d="M21.4238 7.52402C21.3301 7.23932 21.1531 6.9884 20.9151 6.80286C20.6772 6.61733 20.389 6.50549 20.0869 6.48142L14.5553 6.04068L12.4195 0.939696C12.304 0.661746 12.1074 0.423995 11.8547 0.256669C11.6021 0.0893425 11.3047 0 11.0005 0C10.6963 0 10.3989 0.0893425 10.1462 0.256669C9.89358 0.423995 9.69699 0.661746 9.58149 0.939696L7.4476 6.03975L1.91317 6.48142C1.61051 6.5067 1.32212 6.61963 1.08416 6.80606C0.84619 6.99249 0.669222 7.24413 0.575424 7.52945C0.481626 7.81477 0.47517 8.12108 0.556865 8.41C0.63856 8.69893 0.804772 8.95762 1.03468 9.15367L5.25371 12.7491L3.96831 18.1251C3.89642 18.4171 3.91402 18.7237 4.01888 19.0059C4.12374 19.288 4.31112 19.5331 4.55725 19.7099C4.80337 19.8867 5.09714 19.9873 5.40125 19.9989C5.70537 20.0105 6.00612 19.9326 6.26533 19.7751L11 16.8973L15.7375 19.7751C15.9968 19.9307 16.297 20.0071 16.6001 19.9946C16.9033 19.9821 17.196 19.8814 17.4413 19.7049C17.6865 19.5285 17.8735 19.2844 17.9786 19.0032C18.0836 18.7221 18.1021 18.4166 18.0317 18.1251L16.7416 12.7482L20.9607 9.15275C21.1924 8.95703 21.3602 8.69777 21.4426 8.40783C21.5251 8.11788 21.5185 7.81029 21.4238 7.52402Z" fill="#E0E0E0"/>
</svg>
