<svg width="21" height="20" viewBox="0 0 21 20" fill="none" xmlns="http://www.w3.org/2000/svg">
<path d="M20.9238 7.52402C20.8301 7.23932 20.6531 6.9884 20.4151 6.80286C20.1772 6.61733 19.889 6.50549 19.5869 6.48142L14.0553 6.04068L11.9195 0.939696C11.804 0.661746 11.6074 0.423995 11.3547 0.256669C11.1021 0.0893425 10.8047 0 10.5005 0C10.1963 0 9.89892 0.0893425 9.64625 0.256669C9.39358 0.423995 9.19699 0.661746 9.08149 0.939696L6.9476 6.03975L1.41317 6.48142C1.11051 6.5067 0.822125 6.61963 0.584157 6.80606C0.34619 6.99249 0.169222 7.24413 0.0754236 7.52945C-0.0183745 7.81477 -0.0248303 8.12108 0.0568647 8.41C0.13856 8.69893 0.304772 8.95762 0.534678 9.15367L4.75371 12.7491L3.46831 18.1251C3.39642 18.4171 3.41402 18.7237 3.51888 19.0059C3.62374 19.288 3.81112 19.5331 4.05725 19.7099C4.30337 19.8867 4.59714 19.9873 4.90125 19.9989C5.20537 20.0105 5.50612 19.9326 5.76533 19.7751L10.5 16.8973L15.2375 19.7751C15.4968 19.9307 15.797 20.0071 16.1001 19.9946C16.4033 19.9821 16.696 19.8814 16.9413 19.7049C17.1865 19.5285 17.3735 19.2844 17.4786 19.0032C17.5836 18.7221 17.6021 18.4166 17.5317 18.1251L16.2416 12.7482L20.4607 9.15275C20.6924 8.95703 20.8602 8.69777 20.9426 8.40783C21.0251 8.11788 21.0185 7.81029 20.9238 7.52402Z" fill="#FFCB00"/>
<path d="M11.9185 0.939696C11.803 0.661746 11.6064 0.423995 11.3538 0.256669C11.1012 0.0894322 10.8036 9.57317e-05 10.4995 0L10.5 16.8973L15.2347 19.7751C15.4939 19.9326 15.7946 20.0105 16.0987 19.9989C16.4029 19.9873 16.6966 19.8867 16.9428 19.7099C17.1889 19.5331 17.3763 19.288 17.4811 19.0059C17.586 18.7237 17.6036 18.4171 17.5317 18.1251L16.2463 12.7491L20.4653 9.15367C20.6952 8.95763 20.8614 8.69893 20.9431 8.41C21.0248 8.12108 21.0184 7.81477 20.9246 7.52945C20.8308 7.24413 20.6538 6.99249 20.4158 6.80606C20.1779 6.61963 19.8895 6.5067 19.5868 6.48142L14.0524 6.03975L11.9185 0.939696Z" fill="#E0E0E0"/>
</svg>
