<svg width="25" height="24" viewBox="0 0 25 24" fill="none" xmlns="http://www.w3.org/2000/svg">
<rect x="0.5" width="24" height="24" rx="12" fill="#FFCB00" fill-opacity="0.1"/>
<path d="M12 7.84375V12.3438C12 12.805 12.3825 13.1875 12.8438 13.1875C13.305 13.1875 13.6875 12.805 13.6875 12.3438V7.84375C13.6875 7.3825 13.305 7 12.8438 7C12.3825 7 12 7.3825 12 7.84375Z" fill="#FFCB00"/>
<path d="M13.44 15.1225C13.125 14.8075 12.5625 14.8075 12.2475 15.1225C12.1688 15.2013 12.1125 15.2913 12.0675 15.3925C12.0225 15.505 12 15.6063 12 15.7188C12 15.9438 12.09 16.1575 12.2475 16.315C12.405 16.4725 12.6187 16.5625 12.8438 16.5625C13.0688 16.5625 13.2825 16.4725 13.44 16.315C13.5975 16.1575 13.6875 15.9438 13.6875 15.7188C13.6875 15.6063 13.665 15.505 13.62 15.3925C13.5863 15.2913 13.5187 15.2013 13.44 15.1225Z" fill="#FFCB00"/>
</svg>
