<svg width="25" height="24" viewBox="0 0 25 24" fill="none" xmlns="http://www.w3.org/2000/svg">
<rect x="0.5" width="24" height="24" rx="12" fill="#05C050" fill-opacity="0.1"/>
<path d="M13.6875 15.7189L13.6875 11.2189C13.6875 10.7576 13.305 10.3751 12.8438 10.3751C12.3825 10.3751 12 10.7576 12 11.2189L12 15.7189C12 16.1801 12.3825 16.5626 12.8438 16.5626C13.305 16.5626 13.6875 16.1801 13.6875 15.7189Z" fill="#00BF6A"/>
<path d="M12.2485 8.4399C12.5635 8.7549 13.126 8.7549 13.441 8.4399C13.5197 8.36115 13.576 8.27115 13.621 8.1699C13.666 8.0574 13.6885 7.95615 13.6885 7.84365C13.6885 7.61865 13.5985 7.4049 13.441 7.2474C13.2835 7.0899 13.0697 6.9999 12.8447 6.9999C12.6197 6.9999 12.406 7.0899 12.2485 7.2474C12.091 7.4049 12.001 7.61865 12.001 7.84365C12.001 7.95615 12.0235 8.0574 12.0685 8.1699C12.1022 8.27115 12.1697 8.36115 12.2485 8.4399Z" fill="#00BF6A"/>
</svg>
