<svg width="17" height="17" viewBox="0 0 17 17" fill="none" xmlns="http://www.w3.org/2000/svg">
<path d="M6.85166 5.54983L7.99833 4.40698V9.84884C7.99833 10.1213 8.225 10.3472 8.49833 10.3472C8.77167 10.3472 8.99833 10.1213 8.99833 9.84884V4.40698L10.145 5.54983C10.245 5.6495 10.3717 5.69601 10.4983 5.69601C10.625 5.69601 10.7517 5.6495 10.8517 5.54983C11.045 5.35714 11.045 5.03821 10.8517 4.84551L8.49833 2.5L6.145 4.84551C5.95167 5.03821 5.95167 5.35714 6.145 5.54983C6.33833 5.74253 6.65833 5.74253 6.85166 5.54983Z" fill="#999999"/>
<path d="M14 10.5137C13.7267 10.5137 13.5 10.7396 13.5 11.012V13.5037H3.5V11.012C3.5 10.7396 3.27333 10.5137 3 10.5137C2.72667 10.5137 2.5 10.7396 2.5 11.012V13.8359C2.5 14.2014 2.8 14.5004 3.16667 14.5004H13.8333C14.2 14.5004 14.5 14.2014 14.5 13.8359V11.012C14.5 10.7396 14.2733 10.5137 14 10.5137Z" fill="#999999"/>
</svg>
