<svg width="21" height="21" viewBox="0 0 21 21" fill="none" xmlns="http://www.w3.org/2000/svg">
<path d="M18.6513 17.766L13.2596 12.3743C14.143 11.2993 14.668 9.92435 14.668 8.41602C14.668 4.96602 11.868 2.16602 8.41797 2.16602C4.96797 2.16602 2.16797 4.96602 2.16797 8.41602C2.16797 11.866 4.96797 14.666 8.41797 14.666C9.91797 14.666 11.293 14.1327 12.3763 13.2577L17.768 18.6493C17.893 18.7743 18.0513 18.8327 18.2096 18.8327C18.368 18.8327 18.5263 18.7743 18.6513 18.6493C18.893 18.4077 18.893 18.0077 18.6513 17.766ZM12.3596 11.4743C12.1013 11.8077 11.8096 12.0994 11.4763 12.3577C10.6263 13.016 9.56797 13.416 8.41797 13.416C5.65964 13.416 3.41797 11.1743 3.41797 8.41602C3.41797 5.65768 5.65964 3.41602 8.41797 3.41602C11.1763 3.41602 13.418 5.65768 13.418 8.41602C13.418 9.56602 13.018 10.6327 12.3596 11.4743Z" fill="#333333"/>
<path d="M10.4987 7.79232H9.04036V6.33398C9.04036 5.99232 8.75703 5.70898 8.41536 5.70898C8.0737 5.70898 7.79036 5.99232 7.79036 6.33398V7.79232H6.33203C5.99036 7.79232 5.70703 8.07565 5.70703 8.41732C5.70703 8.75898 5.99036 9.04232 6.33203 9.04232H7.79036V10.5007C7.79036 10.8423 8.0737 11.1257 8.41536 11.1257C8.75703 11.1257 9.04036 10.8423 9.04036 10.5007V9.04232H10.4987C10.8404 9.04232 11.1237 8.75898 11.1237 8.41732C11.1237 8.07565 10.8404 7.79232 10.4987 7.79232Z" fill="#333333"/>
</svg>
