<svg width="17" height="16" viewBox="0 0 17 16" fill="none" xmlns="http://www.w3.org/2000/svg">
<path d="M9.99819 7.00014C9.99819 7.13275 9.94551 7.25993 9.85174 7.3537C9.75798 7.44746 9.6308 7.50014 9.49819 7.50014H5.49819C5.36558 7.50014 5.2384 7.44746 5.14464 7.3537C5.05087 7.25993 4.99819 7.13275 4.99819 7.00014C4.99819 6.86754 5.05087 6.74036 5.14464 6.64659C5.2384 6.55282 5.36558 6.50014 5.49819 6.50014H9.49819C9.6308 6.50014 9.75798 6.55282 9.85174 6.64659C9.94551 6.74036 9.99819 6.86754 9.99819 7.00014ZM14.8519 14.3539C14.8055 14.4004 14.7504 14.4373 14.6897 14.4624C14.629 14.4876 14.5639 14.5005 14.4982 14.5005C14.4325 14.5005 14.3674 14.4876 14.3067 14.4624C14.246 14.4373 14.1909 14.4004 14.1444 14.3539L11.0157 11.2245C9.92676 12.1315 8.53006 12.5838 7.11615 12.4873C5.70224 12.3908 4.37997 11.7528 3.42442 10.7062C2.46887 9.65963 1.9536 8.28492 1.9858 6.86808C2.018 5.45125 2.59519 4.10137 3.5973 3.09926C4.59942 2.09714 5.9493 1.51995 7.36613 1.48775C8.78297 1.45555 10.1577 1.97082 11.2043 2.92638C12.2509 3.88193 12.8888 5.20419 12.9853 6.6181C13.0819 8.03201 12.6296 9.42871 11.7226 10.5176L14.8519 13.6464C14.8984 13.6928 14.9353 13.748 14.9605 13.8087C14.9856 13.8694 14.9986 13.9344 14.9986 14.0001C14.9986 14.0659 14.9856 14.1309 14.9605 14.1916C14.9353 14.2523 14.8984 14.3075 14.8519 14.3539ZM7.49819 11.5001C8.38821 11.5001 9.25824 11.2362 9.99826 10.7418C10.7383 10.2473 11.3151 9.54449 11.6556 8.72222C11.9962 7.89995 12.0854 6.99515 11.9117 6.12224C11.7381 5.24932 11.3095 4.4475 10.6802 3.81816C10.0508 3.18883 9.24901 2.76024 8.3761 2.58661C7.50318 2.41298 6.59838 2.50209 5.77611 2.84268C4.95385 3.18328 4.25104 3.76006 3.75658 4.50008C3.26211 5.2401 2.99819 6.11013 2.99819 7.00014C2.99951 8.19321 3.47404 9.33704 4.31767 10.1807C5.1613 11.0243 6.30512 11.4988 7.49819 11.5001Z" fill="#555555"/>
</svg>
